# 3ds Max Wavefront OBJ Exporter v0.97b - (c)2007 guruware
# File Created: 08.04.2019 20:29:24

#
# object Paper_10
#

v  -0.2155 -4.9500 -3.8214
v  -0.2155 -4.9500 3.8214
v  0.0760 -2.4750 3.8213
v  0.0760 -2.4750 -3.8214
v  0.2155 0.0000 3.8213
v  0.2155 4.9500 3.8213
v  0.2155 4.9500 -3.8214
v  0.2155 0.0000 -3.8214
# 8 vertices

vn -0.9931 0.1170 -0.0000
vn -0.9962 0.0866 -0.0000
vn -0.9996 0.0281 -0.0000
vn -1.0000 -0.0000 -0.0000
# 4 vertex normals

vt 0.9298 0.6857 0.0000
vt 0.8991 0.6857 0.0000
vt 0.8991 0.6757 0.0000
vt 0.9298 0.6757 0.0000
vt 0.8991 0.6658 0.0000
vt 0.8991 0.6459 0.0000
vt 0.9298 0.6459 0.0000
vt 0.9298 0.6658 0.0000
# 8 texture coords

g Paper_10
s 1
f 1/1/1 2/2/1 3/3/2 4/4/2 
f 5/5/3 6/6/4 7/7/4 8/8/3 
f 3/3/2 5/5/3 8/8/3 4/4/2 
# 3 polygons

