# 3ds Max Wavefront OBJ Exporter v0.97b - (c)2007 guruware
# File Created: 08.04.2019 20:28:06

#
# object Paper_4
#

v  -0.2462 -3.7918 -2.8609
v  -0.2462 -3.7327 2.9375
v  0.2462 0.0295 2.8992
v  0.2462 -0.0295 -2.8992
v  0.2462 3.7918 2.8609
v  0.2462 3.7327 -2.9375
# 6 vertices

vn -0.9915 0.1298 -0.0013
vn -0.9979 0.0650 -0.0007
vn -1.0000 -0.0000 0.0000
# 3 vertex normals

vt 0.8895 0.5666 0.0000
vt 0.8662 0.5664 0.0000
vt 0.8663 0.5513 0.0000
vt 0.8896 0.5515 0.0000
vt 0.8665 0.5362 0.0000
vt 0.8898 0.5364 0.0000
# 6 texture coords

g Paper_4
s 1
f 1/1/1 2/2/1 3/3/2 4/4/2 
f 3/3/2 5/5/3 6/6/3 4/4/2 
# 2 polygons

