# 3ds Max Wavefront OBJ Exporter v0.97b - (c)2007 guruware
# File Created: 08.04.2019 20:29:10

#
# object Paper_6
#

v  -0.1522 -3.7624 -2.8994
v  -0.1522 -3.7624 2.8994
v  0.1522 0.0000 2.8994
v  0.1522 0.0000 -2.8994
v  0.1522 3.7624 2.8994
v  0.1522 3.7624 -2.8994
# 6 vertices

vn -0.9967 0.0807 -0.0000
vn -0.9992 0.0404 -0.0000
vn -1.0000 -0.0000 -0.0000
# 3 vertex normals

vt 0.9979 0.7715 0.0000
vt 0.9746 0.7715 0.0000
vt 0.9746 0.7564 0.0000
vt 0.9979 0.7564 0.0000
vt 0.9746 0.7412 0.0000
vt 0.9979 0.7412 0.0000
# 6 texture coords

g Paper_6
s 1
f 1/1/1 2/2/1 3/3/2 4/4/2 
f 3/3/2 5/5/3 6/6/3 4/4/2 
# 2 polygons

