# 3ds Max Wavefront OBJ Exporter v0.97b - (c)2007 guruware
# File Created: 08.04.2019 20:28:20

#
# object Paper_5
#

v  -0.2793 -3.6870 -2.9948
v  -0.2793 -3.8354 2.8021
v  0.0698 -1.9548 2.8502
v  0.0698 -1.8064 -2.9466
v  0.2793 -0.0742 2.8984
v  0.2793 3.6870 2.9948
v  0.2793 3.8354 -2.8021
v  0.2793 0.0742 -2.8984
# 8 vertices

vn -0.9832 0.1824 0.0047
vn -0.9892 0.1466 0.0038
vn -0.9985 0.0554 0.0014
vn -1.0000 -0.0000 -0.0000
# 4 vertex normals

vt 0.9161 0.9373 0.0000
vt 0.8928 0.9379 0.0000
vt 0.8926 0.9303 0.0000
vt 0.9159 0.9298 0.0000
vt 0.8924 0.9228 0.0000
vt 0.8920 0.9077 0.0000
vt 0.9153 0.9071 0.0000
vt 0.9157 0.9222 0.0000
# 8 texture coords

g Paper_5
s 1
f 1/1/1 2/2/1 3/3/2 4/4/2 
f 5/5/3 6/6/4 7/7/4 8/8/3 
f 3/3/2 5/5/3 8/8/3 4/4/2 
# 3 polygons

