# 3ds Max Wavefront OBJ Exporter v0.97b - (c)2007 guruware
# File Created: 08.04.2019 20:28:52

#
# object Paper_8
#

v  -0.4369 -6.6374 -5.2656
v  -0.4369 -6.7832 5.0764
v  0.0935 -3.4280 5.1237
v  0.0935 -3.2823 -5.2183
v  0.4369 -0.0729 5.1710
v  0.4369 6.6374 5.2656
v  0.4369 6.7832 -5.0764
v  0.4369 0.0729 -5.1710
# 8 vertices

vn -0.9877 0.1561 0.0022
vn -0.9916 0.1290 0.0018
vn -0.9987 0.0510 0.0007
vn -1.0000 -0.0000 -0.0000
# 4 vertex normals

vt 0.9970 0.7359 0.0000
vt 0.9554 0.7365 0.0000
vt 0.9552 0.7231 0.0000
vt 0.9968 0.7225 0.0000
vt 0.9550 0.7096 0.0000
vt 0.9547 0.6826 0.0000
vt 0.9962 0.6820 0.0000
vt 0.9966 0.7090 0.0000
# 8 texture coords

g Paper_8
s 1
f 1/1/1 2/2/1 3/3/2 4/4/2 
f 5/5/3 6/6/4 7/7/4 8/8/3 
f 3/3/2 5/5/3 8/8/3 4/4/2 
# 3 polygons

