# 3ds Max Wavefront OBJ Exporter v0.97b - (c)2007 guruware
# File Created: 08.04.2019 20:25:38

#
# object Paper_total
#

v  0.1109 -3.0054 -37.3956
v  0.1109 -3.1479 -31.5987
v  0.4051 -2.2076 -31.5756
v  0.4051 -2.0651 -37.3725
v  0.0267 -20.0702 -38.4527
v  0.0267 -19.9592 -28.1103
v  0.4696 -16.6039 -28.1463
v  0.4696 -16.7149 -38.4887
v  0.0911 -3.6826 -30.6435
v  0.0911 -3.6235 -24.8451
v  0.5835 0.1387 -24.8834
v  0.5835 0.0797 -30.6819
v  0.0249 -4.2950 -24.1284
v  0.0249 -4.4435 -18.3316
v  0.3740 -2.5629 -18.2834
v  0.3740 -2.4144 -24.0802
v  0.2790 -3.4251 -16.8526
v  0.2790 -3.4251 -11.0539
v  0.5835 0.3374 -11.0539
v  0.5835 0.3374 -16.8526
v  -0.1986 -22.2157 -26.9068
v  -0.1986 -22.3615 -16.5648
v  0.5835 -15.6512 -16.4702
v  0.5835 -15.5054 -26.8122
v  0.5835 -10.5058 -7.9667
v  0.5835 -4.7071 -7.9658
v  0.5835 -4.7059 -15.4906
v  0.5835 -10.5047 -15.4915
v  -0.5835 -12.1154 -5.6441
v  -0.5835 -12.2612 4.6979
v  0.2075 -8.9061 4.7452
v  0.2075 -8.7603 -5.5968
v  0.2048 2.4526 -2.2352
v  0.4884 3.9023 -2.2350
v  0.4884 3.9034 -9.7599
v  0.2048 2.4538 -9.7601
v  0.1359 8.7355 9.4646
v  0.5835 11.6348 9.4650
v  0.5835 11.6360 1.9401
v  0.1359 8.7366 1.9397
v  0.1526 15.3131 4.2244
v  0.1526 15.3131 11.8671
v  0.4441 17.7881 11.8671
v  0.4441 17.7881 4.2244
v  -0.0263 8.5009 12.5385
v  -0.0263 8.4760 20.1812
v  0.3616 10.9510 20.1892
v  0.3616 10.9758 12.5465
v  0.1141 -2.0806 5.8628
v  0.1141 -2.0806 13.5055
v  0.5835 2.7459 13.5055
v  0.5835 2.7459 5.8628
v  0.1907 -2.1480 14.8924
v  0.1907 -2.1915 22.5350
v  0.4876 -0.9541 22.5420
v  0.4876 -0.9105 14.8994
v  0.2422 18.8459 22.0982
v  0.5835 21.7450 22.0613
v  0.5835 21.6491 14.5370
v  0.2422 18.7500 14.5740
v  0.2103 10.7807 22.5746
v  0.2103 10.7807 28.3734
v  0.5835 14.5432 28.3734
v  0.5835 14.5432 22.5746
v  0.1539 9.1910 30.1167
v  0.1539 9.2029 35.9155
v  0.4657 10.1435 35.9135
v  0.4657 10.1317 30.1148
v  0.5835 7.7397 30.4751
v  0.5835 4.8404 30.4472
v  0.5835 4.7680 37.9717
v  0.5835 7.6672 37.9996
v  0.1671 2.5730 23.5717
v  0.1671 2.5637 29.3704
v  0.4517 4.4449 29.3735
v  0.4517 4.4542 23.5747
v  0.0921 -11.4303 20.6426
v  0.0921 -11.4397 26.4413
v  0.4821 -9.5584 26.4443
v  0.4821 -9.5491 20.6456
v  -0.2903 -21.6880 28.0655
v  -0.2903 -21.8338 38.4076
v  0.2401 -18.4786 38.4548
v  0.2401 -18.3329 28.1128
v  0.3327 -25.2131 21.3552
v  0.3327 -25.0042 27.1501
v  0.5835 -21.2442 27.0146
v  0.5835 -21.4531 21.2196
v  0.0126 -24.9760 20.4813
v  0.4187 -23.5263 20.4815
v  0.4187 -23.5252 12.9566
v  0.0126 -24.9749 12.9564
v  0.2068 -19.6693 -15.5115
v  0.2068 -19.6484 -9.7129
v  0.5835 -15.8860 -9.7264
v  0.5835 -15.9069 -15.5251
v  0.1085 -23.0844 -8.8657
v  0.1085 -23.0746 -3.0670
v  0.4227 -21.1934 -3.0702
v  0.4227 -21.2032 -8.8689
v  0.5835 -15.1235 38.5021
v  0.5835 -8.4132 38.5967
v  0.5835 -8.2674 28.2547
v  0.5835 -14.9777 28.1601
v  0.5835 -7.6772 26.4473
v  0.5835 -3.9148 26.4534
v  0.5835 -3.9055 20.6547
v  0.5835 -7.6679 20.6486
v  0.5835 0.2834 22.5491
v  0.5835 7.7083 22.5914
v  0.5835 7.7519 14.9488
v  0.5835 0.3270 14.9065
v  0.5835 5.3520 -2.2348
v  0.5835 8.2514 -2.2344
v  0.5835 8.2525 -9.7592
v  0.5835 5.3531 -9.7597
v  0.5835 -5.5509 4.7925
v  0.5835 1.1594 4.8871
v  0.5835 1.3051 -5.4549
v  0.5835 -5.4051 -5.5495
v  0.5835 4.0998 -11.0539
v  0.5835 4.0998 -16.8526
v  0.5835 -0.6823 -18.2352
v  0.5835 3.0789 -18.1389
v  0.5835 3.2274 -23.9357
v  0.5835 -0.5338 -24.0320
v  0.5835 3.9009 -24.9217
v  0.5835 3.8419 -30.7202
v  0.5835 -1.2673 -31.5524
v  0.5835 4.3747 -31.4138
v  0.5835 4.5171 -37.2107
v  0.5835 -1.1248 -37.3494
v  0.5835 7.6959 13.5055
v  0.5835 7.6959 5.8628
v  0.5835 13.4260 20.1972
v  0.5835 18.3760 20.2133
v  0.5835 18.4008 12.5707
v  0.5835 13.4508 12.5546
v  0.5835 14.5342 9.4654
v  0.5835 14.5353 1.9406
v  0.5835 20.2631 11.8671
v  0.5835 25.2131 11.8671
v  0.5835 25.2131 4.2244
v  0.5835 20.2631 4.2244
v  0.5835 24.6441 22.0243
v  0.5835 24.5482 14.5001
v  0.5835 11.0842 35.9116
v  0.5835 16.7278 35.9000
v  0.5835 16.7159 30.1013
v  0.5835 11.0723 30.1129
v  0.5835 18.3056 28.3734
v  0.5835 18.3056 22.5746
v  0.5835 6.3261 29.3765
v  0.5835 10.0885 29.3825
v  0.5835 10.0979 23.5838
v  0.5835 6.3354 23.5778
v  0.2669 1.9412 30.4193
v  0.2669 1.8688 37.9438
v  0.5835 -8.9409 -16.3756
v  0.5835 -8.7951 -26.7176
v  0.5835 -13.2487 -28.1823
v  0.5835 -6.5381 -28.2543
v  0.5835 -6.6491 -38.5967
v  0.5835 -13.3596 -38.5247
v  0.5835 -12.1236 -9.7400
v  0.5835 -12.1445 -15.5387
v  0.5835 -19.3122 -3.0733
v  0.5835 -15.5498 -3.0797
v  0.5835 -15.5596 -8.8784
v  0.5835 -19.3220 -8.8721
v  0.5835 -17.4842 26.8790
v  0.5835 -17.6931 21.0841
v  0.5835 -22.0766 20.4817
v  0.5835 -19.1773 20.4821
v  0.5835 -19.1762 12.9573
v  0.5835 -22.0755 12.9569
# 176 vertices

vn -0.9544 0.2984 0.0073
vn -0.9701 0.2428 0.0060
vn -0.9914 0.1309 -0.0014
vn -0.9966 0.0825 -0.0009
vn -0.9915 0.1298 -0.0013
vn -0.9979 0.0650 -0.0007
vn -0.9832 0.1824 0.0047
vn -0.9892 0.1466 0.0038
vn -0.9967 0.0807 -0.0000
vn -0.9992 0.0404 -0.0000
vn -0.9933 0.1157 0.0016
vn -0.9983 0.0580 0.0008
vn -1.0000 -0.0000 0.0000
vn -0.9733 0.2294 0.0032
vn -0.9853 0.1707 0.0024
vn -0.9814 0.1920 0.0000
vn -0.9916 0.1290 0.0000
vn -0.9883 0.1526 0.0000
vn -0.9971 0.0765 0.0000
vn -0.9931 0.1170 -0.0000
vn -0.9962 0.0866 -0.0000
vn -0.9879 0.1548 0.0005
vn -0.9925 0.1222 0.0004
vn -0.9953 0.0968 -0.0000
vn -0.9988 0.0485 -0.0000
vn -0.9724 0.2333 0.0013
vn -0.9878 0.1558 0.0009
vn -0.9931 0.1169 -0.0015
vn -0.9983 0.0586 -0.0007
vn -0.9951 0.0987 -0.0000
vn -0.9988 0.0494 -0.0000
vn -0.9492 0.3146 -0.0006
vn -0.9754 0.2205 -0.0005
vn -1.0000 0.0000 -0.0000
vn -0.9985 0.0544 0.0005
vn -0.9887 0.1496 0.0002
vn -0.9939 0.1098 0.0002
vn -0.9792 0.2030 0.0003
vn -0.9917 0.1288 0.0002
vn -0.9877 0.1561 0.0022
vn -0.9916 0.1290 0.0018
vn -0.9978 0.0665 -0.0024
vn -0.9994 0.0333 -0.0012
vn -0.9629 0.2697 0.0000
vn -0.9950 0.0996 -0.0004
vn -0.9988 0.0499 -0.0002
vn -0.9863 0.1647 -0.0003
vn -0.9922 0.1251 -0.0002
vn -0.9987 0.0510 0.0007
vn -1.0000 -0.0000 -0.0000
vn -0.9996 0.0269 0.0000
vn -0.9993 0.0387 0.0002
vn -0.9995 0.0328 0.0000
vn -0.9984 0.0558 0.0008
vn -0.9985 0.0554 0.0014
vn -0.9956 0.0936 0.0023
vn -0.9990 0.0447 0.0001
vn -0.9996 0.0281 -0.0000
vn -1.0000 0.0000 0.0000
vn -0.9981 0.0623 -0.0001
vn -0.9994 0.0350 0.0001
vn -0.9941 0.1085 0.0010
vn -0.9999 0.0170 -0.0002
vn -0.9991 0.0426 -0.0001
vn -0.9984 0.0566 0.0000
# 65 vertex normals

vt 0.8967 0.6386 0.0000
vt 0.8734 0.6392 0.0000
vt 0.8733 0.6354 0.0000
vt 0.8966 0.6348 0.0000
vt 0.8988 0.8463 0.0000
vt 0.8573 0.8459 0.0000
vt 0.8574 0.8324 0.0000
vt 0.8990 0.8329 0.0000
vt 0.8895 0.5666 0.0000
vt 0.8662 0.5664 0.0000
vt 0.8663 0.5513 0.0000
vt 0.8896 0.5515 0.0000
vt 0.9161 0.9373 0.0000
vt 0.8928 0.9379 0.0000
vt 0.8926 0.9303 0.0000
vt 0.9159 0.9298 0.0000
vt 0.9979 0.7715 0.0000
vt 0.9746 0.7715 0.0000
vt 0.9746 0.7564 0.0000
vt 0.9979 0.7564 0.0000
vt 0.9455 0.8333 0.0000
vt 0.9039 0.8339 0.0000
vt 0.9036 0.8069 0.0000
vt 0.9451 0.8063 0.0000
vt 0.9449 0.7742 0.0000
vt 0.9216 0.7742 0.0000
vt 0.9216 0.7439 0.0000
vt 0.9449 0.7439 0.0000
vt 0.9170 0.7771 0.0000
vt 0.8755 0.7777 0.0000
vt 0.8753 0.7642 0.0000
vt 0.9168 0.7636 0.0000
vt 0.9935 0.9342 0.0000
vt 0.9877 0.9342 0.0000
vt 0.9877 0.9039 0.0000
vt 0.9935 0.9039 0.0000
vt 0.8186 0.6426 0.0000
vt 0.8070 0.6426 0.0000
vt 0.8070 0.6124 0.0000
vt 0.8186 0.6124 0.0000
vt 0.9298 0.6857 0.0000
vt 0.8991 0.6857 0.0000
vt 0.8991 0.6757 0.0000
vt 0.9298 0.6757 0.0000
vt 0.9533 0.7330 0.0000
vt 0.9225 0.7331 0.0000
vt 0.9225 0.7232 0.0000
vt 0.9532 0.7231 0.0000
vt 0.9569 0.6434 0.0000
vt 0.9262 0.6434 0.0000
vt 0.9262 0.6236 0.0000
vt 0.9569 0.6236 0.0000
vt 0.9977 0.8522 0.0000
vt 0.9670 0.8523 0.0000
vt 0.9670 0.8474 0.0000
vt 0.9977 0.8472 0.0000
vt 0.9976 0.8109 0.0000
vt 0.9859 0.8108 0.0000
vt 0.9863 0.7806 0.0000
vt 0.9980 0.7807 0.0000
vt 0.9718 0.8104 0.0000
vt 0.9485 0.8104 0.0000
vt 0.9485 0.7953 0.0000
vt 0.9718 0.7953 0.0000
vt 0.7241 0.7945 0.0000
vt 0.7008 0.7945 0.0000
vt 0.7008 0.7907 0.0000
vt 0.7241 0.7907 0.0000
vt 0.8612 0.9016 0.0000
vt 0.8729 0.9015 0.0000
vt 0.8732 0.9317 0.0000
vt 0.8615 0.9318 0.0000
vt 0.7796 0.8995 0.0000
vt 0.7563 0.8996 0.0000
vt 0.7563 0.8920 0.0000
vt 0.7796 0.8920 0.0000
vt 0.8872 0.6531 0.0000
vt 0.8873 0.6764 0.0000
vt 0.8797 0.6764 0.0000
vt 0.8797 0.6531 0.0000
vt 0.9970 0.7359 0.0000
vt 0.9554 0.7365 0.0000
vt 0.9552 0.7231 0.0000
vt 0.9968 0.7225 0.0000
vt 0.9138 0.7192 0.0000
vt 0.8905 0.7184 0.0000
vt 0.8910 0.7033 0.0000
vt 0.9143 0.7041 0.0000
vt 0.9718 0.7713 0.0000
vt 0.9660 0.7713 0.0000
vt 0.9660 0.7411 0.0000
vt 0.9718 0.7411 0.0000
vt 0.9572 0.6806 0.0000
vt 0.9339 0.6805 0.0000
vt 0.9340 0.6654 0.0000
vt 0.9573 0.6655 0.0000
vt 0.8821 0.8886 0.0000
vt 0.8588 0.8886 0.0000
vt 0.8588 0.8810 0.0000
vt 0.8821 0.8811 0.0000
vt 0.9550 0.7096 0.0000
vt 0.9547 0.6826 0.0000
vt 0.9962 0.6820 0.0000
vt 0.9966 0.7090 0.0000
vt 0.8721 0.6764 0.0000
vt 0.8570 0.6765 0.0000
vt 0.8570 0.6532 0.0000
vt 0.8721 0.6531 0.0000
vt 0.9670 0.8424 0.0000
vt 0.9668 0.8126 0.0000
vt 0.9975 0.8124 0.0000
vt 0.9977 0.8422 0.0000
vt 0.9819 0.9342 0.0000
vt 0.9702 0.9342 0.0000
vt 0.9702 0.9039 0.0000
vt 0.9819 0.9039 0.0000
vt 0.8751 0.7507 0.0000
vt 0.8747 0.7238 0.0000
vt 0.9163 0.7232 0.0000
vt 0.9166 0.7502 0.0000
vt 0.9746 0.7412 0.0000
vt 0.9979 0.7412 0.0000
vt 0.8924 0.9228 0.0000
vt 0.8920 0.9077 0.0000
vt 0.9153 0.9071 0.0000
vt 0.9157 0.9222 0.0000
vt 0.8665 0.5362 0.0000
vt 0.8898 0.5364 0.0000
vt 0.8732 0.6316 0.0000
vt 0.8727 0.6090 0.0000
vt 0.8960 0.6084 0.0000
vt 0.8965 0.6311 0.0000
vt 0.9262 0.6037 0.0000
vt 0.9569 0.6037 0.0000
vt 0.9225 0.7133 0.0000
vt 0.9224 0.6934 0.0000
vt 0.9531 0.6933 0.0000
vt 0.9532 0.7132 0.0000
vt 0.7953 0.6426 0.0000
vt 0.7953 0.6124 0.0000
vt 0.8991 0.6658 0.0000
vt 0.8991 0.6459 0.0000
vt 0.9298 0.6459 0.0000
vt 0.9298 0.6658 0.0000
vt 0.9743 0.8106 0.0000
vt 0.9747 0.7804 0.0000
vt 0.7008 0.7869 0.0000
vt 0.7009 0.7642 0.0000
vt 0.7242 0.7643 0.0000
vt 0.7241 0.7870 0.0000
vt 0.9485 0.7802 0.0000
vt 0.9718 0.7802 0.0000
vt 0.7563 0.8844 0.0000
vt 0.7563 0.8693 0.0000
vt 0.7796 0.8693 0.0000
vt 0.7796 0.8844 0.0000
vt 0.8845 0.9013 0.0000
vt 0.8848 0.9316 0.0000
vt 0.9032 0.7799 0.0000
vt 0.9447 0.7793 0.0000
vt 0.8576 0.8189 0.0000
vt 0.8579 0.7920 0.0000
vt 0.8994 0.7924 0.0000
vt 0.8991 0.8194 0.0000
vt 0.9341 0.6503 0.0000
vt 0.9574 0.6504 0.0000
vt 0.8588 0.8735 0.0000
vt 0.8588 0.8584 0.0000
vt 0.8821 0.8584 0.0000
vt 0.8821 0.8735 0.0000
vt 0.8916 0.6881 0.0000
vt 0.9148 0.6890 0.0000
vt 0.9602 0.7713 0.0000
vt 0.9485 0.7713 0.0000
vt 0.9485 0.7411 0.0000
vt 0.9602 0.7411 0.0000
# 176 texture coords

g Paper_total
s 1
f 1/1/1 2/2/1 3/3/2 4/4/2 
f 5/5/3 6/6/3 7/7/4 8/8/4 
f 9/9/5 10/10/5 11/11/6 12/12/6 
f 13/13/7 14/14/7 15/15/8 16/16/8 
f 17/17/9 18/18/9 19/19/10 20/20/10 
f 21/21/11 22/22/11 23/23/12 24/24/12 
f 25/25/13 26/26/13 27/27/13 28/28/13 
f 29/29/14 30/30/14 31/31/15 32/32/15 
f 33/33/16 34/34/17 35/35/17 36/36/16 
f 37/37/18 38/38/19 39/39/19 40/40/18 
f 41/41/20 42/42/20 43/43/21 44/44/21 
f 45/45/22 46/46/22 47/47/23 48/48/23 
f 49/49/24 50/50/24 51/51/25 52/52/25 
f 53/53/26 54/54/26 55/55/27 56/56/27 
f 57/57/28 58/58/29 59/59/29 60/60/28 
f 61/61/30 62/62/30 63/63/31 64/64/31 
f 65/65/32 66/66/32 67/67/33 68/68/33 
f 69/69/34 70/70/35 71/71/35 72/72/34 
f 73/73/36 74/74/36 75/75/37 76/76/37 
f 77/77/38 78/78/38 79/79/39 80/80/39 
f 81/81/40 82/82/40 83/83/41 84/84/41 
f 85/85/42 86/86/42 87/87/43 88/88/43 
f 89/89/44 90/90/16 91/91/16 92/92/44 
f 93/93/45 94/94/45 95/95/46 96/96/46 
f 97/97/47 98/98/47 99/99/48 100/100/48 
f 101/101/49 102/102/50 103/103/50 104/104/49 
f 83/83/41 101/101/49 104/104/49 84/84/41 
f 105/105/51 106/106/50 107/107/50 108/108/51 
f 79/79/39 105/105/51 108/108/51 80/80/39 
f 109/109/52 110/110/50 111/111/50 112/112/52 
f 55/55/27 109/109/52 112/112/52 56/56/27 
f 113/113/53 114/114/13 115/115/13 116/116/53 
f 34/34/17 113/113/53 116/116/53 35/35/17 
f 117/117/54 118/118/50 119/119/50 120/120/54 
f 31/31/15 117/117/54 120/120/54 32/32/15 
f 19/19/10 121/121/50 122/122/50 20/20/10 
f 123/123/55 124/124/50 125/125/50 126/126/55 
f 15/15/8 123/123/55 126/126/55 16/16/8 
f 11/11/6 127/127/13 128/128/13 12/12/6 
f 129/129/56 130/130/50 131/131/50 132/132/56 
f 3/3/2 129/129/56 132/132/56 4/4/2 
f 51/51/25 133/133/50 134/134/50 52/52/25 
f 135/135/57 136/136/50 137/137/50 138/138/57 
f 47/47/23 135/135/57 138/138/57 48/48/23 
f 38/38/19 139/139/13 140/140/13 39/39/19 
f 141/141/58 142/142/50 143/143/50 144/144/58 
f 43/43/21 141/141/58 144/144/58 44/44/21 
f 58/58/29 145/145/59 146/146/59 59/59/29 
f 147/147/60 148/148/13 149/149/13 150/150/60 
f 67/67/33 147/147/60 150/150/60 68/68/33 
f 63/63/31 151/151/50 152/152/50 64/64/31 
f 153/153/61 154/154/50 155/155/50 156/156/61 
f 75/75/37 153/153/61 156/156/61 76/76/37 
f 70/70/35 157/157/62 158/158/62 71/71/35 
f 23/23/12 159/159/50 160/160/50 24/24/12 
f 161/161/63 162/162/13 163/163/13 164/164/63 
f 7/7/4 161/161/63 164/164/63 8/8/4 
f 95/95/46 165/165/13 166/166/13 96/96/46 
f 167/167/64 168/168/13 169/169/13 170/170/64 
f 99/99/48 167/167/64 170/170/64 100/100/48 
f 87/87/43 171/171/13 172/172/13 88/88/43 
f 173/173/65 174/174/13 175/175/13 176/176/65 
f 90/90/16 173/173/65 176/176/65 91/91/16 
# 63 polygons

