# 3ds Max Wavefront OBJ Exporter v0.97b - (c)2007 guruware
# File Created: 08.04.2019 20:27:12

#
# object Paper_3
#

v  -0.3910 -6.6374 -5.2656
v  -0.3910 -6.7832 5.0764
v  0.3910 -0.0729 5.1710
v  0.3910 0.0729 -5.1710
v  0.3910 6.6374 5.2656
v  0.3910 6.7832 -5.0764
# 6 vertices

vn -0.9933 0.1157 0.0016
vn -0.9983 0.0580 0.0008
vn -1.0000 -0.0000 -0.0000
# 3 vertex normals

vt 0.9455 0.8333 0.0000
vt 0.9039 0.8339 0.0000
vt 0.9036 0.8069 0.0000
vt 0.9451 0.8063 0.0000
vt 0.9032 0.7799 0.0000
vt 0.9447 0.7793 0.0000
# 6 texture coords

g Paper_3
s 1
f 1/1/1 2/2/1 3/3/2 4/4/2 
f 3/3/2 5/5/3 6/6/3 4/4/2 
# 2 polygons

